<?xml version="1.0" encoding="UTF-8" standalone="no"?>
<!-- Created with Inkscape (http://www.inkscape.org/) -->

<svg
   version="1.1"
   id="svg2"
   width="500.07999"
   height="121.44"
   viewBox="0 0 500.07999 121.44"
   sodipodi:docname="Tecnonet Comuters.eps"
   xmlns:inkscape="http://www.inkscape.org/namespaces/inkscape"
   xmlns:sodipodi="http://sodipodi.sourceforge.net/DTD/sodipodi-0.dtd"
   xmlns="http://www.w3.org/2000/svg"
   xmlns:svg="http://www.w3.org/2000/svg">
  <defs
     id="defs6" />
  <sodipodi:namedview
     id="namedview4"
     pagecolor="#ffffff"
     bordercolor="#000000"
     borderopacity="0.25"
     inkscape:showpageshadow="2"
     inkscape:pageopacity="0.0"
     inkscape:pagecheckerboard="0"
     inkscape:deskcolor="#d1d1d1" />
  <g
     id="g8"
     inkscape:groupmode="layer"
     inkscape:label="ink_ext_XXXXXX"
     transform="matrix(1.3333333,0,0,-1.3333333,0,121.44)">
    <g
       id="g10"
       transform="scale(0.1)">
      <path
         d="M 79.7266,907.676 H 866.688 l -51.434,-131.16 h -54.008 l 23.145,72.007 H 120.02 L 77.1523,736.223 H 345.477 L 115.73,121.57 H 235.746 L 466.352,736.23 H 654.094 L 878.691,382.18 1074.14,905.969 h 236.61 L 995.277,60.7148 H 785.25 L 610.367,338.469 509.215,61.5625 H 450.063 L 600.082,458.477 817.828,118.145 H 966.133 L 1231.02,851.953 H 1113.58 L 894.121,261.309 633.516,676.223 H 499.781 L 270.039,59.8555 H 35.1523 L 267.465,676.223 H 0 l 79.7266,231.453"
         style="fill:#32b2e8;fill-opacity:1;fill-rule:nonzero;stroke:none"
         id="path12" />
      <path
         d="m 1705.09,454.402 c 0,0 85.51,5.786 78.43,-70.078 25.08,1.926 54.02,21.86 77.16,49.504 23.14,27.649 34.08,49.512 61.72,30.215 27.65,-19.285 39.22,-30.859 15.43,-52.07 -23.79,-21.219 -98.37,-176.172 -66.86,-136.953 31.5,39.218 98.37,132.453 142.73,165.878 14.78,12.215 36.64,13.504 50.79,0 14.14,-13.496 7.72,-25.07 -5.14,-41.789 -12.87,-16.714 -54.01,-129.871 -27.65,-95.156 26.35,34.719 88.09,122.16 129.23,162.024 41.15,39.863 54.01,23.789 66.86,10.925 12.87,-12.859 32.8,-31.504 12.22,-49.5 -20.58,-18.007 -58.51,-68.156 -77.15,-108.664 -18.64,-40.508 7.72,-73.289 41.79,-36.004 34.08,37.293 55.94,66.868 75.87,122.161 19.93,55.293 37.29,96.445 55.94,126.011 18.64,29.582 40.5,19.297 47.58,14.153 7.06,-5.149 20.57,-14.153 1.92,-46.934 -18.65,-32.793 -45.65,-82.937 -12.22,-50.789 33.44,32.144 76.51,68.789 122.17,26.355 45.64,-42.429 39.22,-173.593 -69.45,-240.461 -29.57,-17.363 -102.87,-27.644 -137.58,4.504 -7.72,-28.293 -63.01,-187.0973 -52.73,-197.3824 10.3,-10.293 12.86,-30.87113 -7.07,-38.58207 -19.93,-7.71484 -77.15,7.71094 -50.15,89.37497 27.01,81.6485 37.94,127.9375 43.73,139.5075 5.78,11.582 8.99,25.078 -10.3,7.715 -19.28,-17.351 -46.29,-23.777 -84.22,9.004 -37.93,32.793 -26.36,53.371 -7.71,82.942 18.64,29.582 28.28,64.941 3.21,32.148 -25.08,-32.793 -61.73,-90.652 -86.79,-115.731 -25.08,-25.07 -52.73,-26.359 -69.45,-16.078 -16.72,10.293 -16.72,37.942 -3.85,66.875 12.86,28.926 19.28,72.649 -3.86,34.719 -23.15,-37.937 -77.15,-118.301 -118.94,-117.656 -41.8,0.637 -66.87,34.719 -35.36,85.508 31.5,50.793 28.93,63.007 10.92,50.144 -18,-12.859 -38.57,-10.926 -38.57,-10.926 0,0 -49.51,-141.445 -160.74,-141.445 -111.22,0 -120.87,92.578 -65.58,170.383 55.29,77.793 98.38,118.941 153.67,86.148 z m -30.87,-174.879 c 41.8,55.293 66.23,117.008 32.8,130.516 -33.43,13.508 -90.02,-72.656 -90.02,-72.656 -64.29,-94.512 15.43,-113.153 57.22,-57.86 z m 671.24,-29.574 c 60.43,0.637 97.72,84.867 106.73,145.305 8.99,60.437 -34.08,40.508 -61.09,9.641 -27,-30.864 -48.86,-61.079 -48.86,-61.079 -15.44,-21.863 -57.22,-94.507 3.22,-93.867"
         style="fill:#ed1c24;fill-opacity:1;fill-rule:nonzero;stroke:none"
         id="path14" />
      <path
         d="m 2692,438.328 c 0,0 -38.57,-64.937 -61.71,-116.375 -23.16,-51.433 -3.86,-91.301 29.56,-57.859 33.44,33.433 66.22,79.722 100.31,147.879 34.07,68.144 55.29,84.218 75.86,75.859 20.57,-8.352 54.66,-19.934 30.22,-51.434 -24.44,-31.503 -68.8,-95.16 -69.44,-153.664 -0.64,-58.504 31.5,-27.004 51.43,-1.921 19.93,25.066 37.94,45.64 52.73,88.074 14.78,42.441 55.93,156.242 77.79,192.246 -109.3,-0.645 -97.73,0 -109.3,0 -11.57,0 -44.36,4.504 -44.36,22.5 0,18.008 24.43,19.289 82.94,22.5 58.51,3.222 95.15,4.504 95.15,4.504 0,0 21.23,70.718 56.59,70.086 35.36,-0.645 60.44,-3.223 46.28,-23.789 -14.14,-20.579 -43.71,-40.508 -15.42,-40.508 28.29,0 122.16,0 149.16,0 27.01,0 102.23,-41.797 23.15,-41.797 -79.08,0 -201.89,0 -201.89,0 0,0 -58.51,-129.871 -89.37,-217.949 -30.86,-88.086 -10.93,-126.66 24.43,-95.157 35.36,31.504 60.44,52.071 67.52,80.364 7.06,28.289 46.28,112.515 95.8,154.949 32.78,28.937 57.21,25.723 87.44,15.43 30.21,-10.286 57.86,-10.286 52.71,-62.364 -5.14,-52.082 -79.73,-162.019 -172.31,-113.797 -3.21,-64.296 4.51,-124.093 74.59,-86.796 70.07,37.285 111.87,90.007 147.23,149.8 26.36,40.508 25.71,59.797 11.57,66.223 -14.15,6.426 -9.64,25.078 5.79,38.574 15.43,13.504 41.15,20.574 58.51,18.653 17.35,-1.934 37.93,-5.149 30.86,-29.579 -7.07,-24.433 8.99,-19.933 24.43,-19.933 15.43,0 27.01,22.5 50.8,19.933 23.79,-2.57 70.72,-10.929 34.71,-41.789 -36,-30.871 -74.58,-82.304 -93.87,-136.308 -19.28,-54.004 18,-75.227 48.86,-39.219 30.87,36.008 90.66,108.02 110.59,171.027 19.93,63.004 21.22,100.938 57.87,90.653 36.64,-10.293 72,-19.285 43.72,-43.074 -28.29,-23.79 -63.65,-81.016 -18.01,-191.606 12.22,-39.219 29.58,-153.016 -76.5,-113.152 -57.87,28.293 -89.38,54.004 -110.59,37.285 -21.22,-16.707 -39.23,-12.207 -57.87,-12.207 -18.64,0 -97.08,11.57 -66.86,88.723 30.21,77.156 50.79,113.152 34.71,117.656 -16.07,4.5 -27,-10.93 -38.57,-32.153 -11.57,-21.211 -127.31,-180.015 -232.74,-180.015 -105.45,0 -109.3,57.215 -119.59,43.719 -10.29,-13.504 -36.01,-37.293 -75.23,-37.293 -82.29,1.289 -70.08,52.722 -88.72,37.937 -18.66,-14.797 -39.86,-45.652 -88.08,-45.652 -48.23,0 -72.66,31.504 -64.95,79.082 -21.85,-30.864 -66.86,-69.438 -102.22,-69.438 -35.37,0 -126.66,32.793 -58.51,157.524 68.15,124.722 88.09,127.3 109.94,118.941 21.87,-8.355 38.57,-17.359 12.86,-55.293 z m 473.21,-78.433 c 19.28,-9.653 38.58,12.214 38.58,12.214 39.22,52.715 34.72,82.293 18.64,87.442 -16.07,5.137 -50.16,-36.653 -50.16,-36.653 -13.49,-21.218 -26.35,-53.367 -7.06,-63.003 z M 3626.2,251.23 c 46.94,-13.496 31.51,23.145 16.07,63.008 -15.43,39.864 -18.64,19.285 -30.86,-5.781 -12.21,-25.078 -33.43,-39.863 -33.43,-39.863 -4.5,-3.211 15.43,-7.071 48.22,-17.364"
         style="fill:#ed1c24;fill-opacity:1;fill-rule:nonzero;stroke:none"
         id="path16" />
      <path
         d="m 1462.05,332.891 c 0,0 -110.58,-72.657 -212.81,-72.657 -102.23,0 -160.73,70.079 -91.3,198.672 69.44,128.582 148.52,195.449 224.39,236.602 59.8,32.148 101.59,22.5 112.51,-2.567 10.94,-25.082 16.72,-66.875 66.23,-38.586 49.5,28.293 24,61.297 6,74.153 -18,12.859 -57.44,25.722 -86.58,37.722 -29.15,12 -79.73,34.29 -120.88,18 -41.15,-16.281 -118.3,-59.14 -275.18,-287.179 -69.43,-98.582 -88.297,-227.168 80.59,-277.754 130.3,-40.293 270.03,37.726 299.18,60.867 29.14,23.149 39.43,44.57 33.43,53.149 -6,8.574 -18,6.863 -35.58,-0.422"
         style="fill:#ed1c24;fill-opacity:1;fill-rule:nonzero;stroke:none"
         id="path18" />
      <path
         d="m 1647.63,908.586 h 124.54 V 875.84 h -41.79 v -99.856 h -40.97 v 99.856 h -41.78 v 32.746"
         style="fill:#1d4e9e;fill-opacity:1;fill-rule:nonzero;stroke:none"
         id="path20" />
      <path
         d="m 1883.77,814.883 h -73.79 c 0.66,-5.906 2.25,-10.313 4.79,-13.203 3.55,-4.16 8.19,-6.239 13.92,-6.239 3.63,0 7.06,0.899 10.32,2.704 1.99,1.152 4.13,3.171 6.42,6.066 l 36.27,-3.352 c -5.55,-9.648 -12.24,-16.562 -20.08,-20.754 -7.84,-4.187 -19.08,-6.289 -33.74,-6.289 -12.72,0 -22.73,1.797 -30.03,5.383 -7.3,3.594 -13.33,9.285 -18.13,17.102 -4.79,7.801 -7.19,16.98 -7.19,27.539 0,15.008 4.81,27.156 14.43,36.441 9.61,9.289 22.89,13.934 39.83,13.934 13.76,0 24.6,-2.082 32.57,-6.246 7.96,-4.16 14.02,-10.188 18.18,-18.086 4.16,-7.903 6.23,-18.172 6.23,-30.84 z m -37.44,17.637 c -0.72,7.109 -2.64,12.207 -5.74,15.285 -3.11,3.074 -7.19,4.617 -12.26,4.617 -5.85,0 -10.52,-2.324 -14.01,-6.973 -2.23,-2.89 -3.65,-7.195 -4.26,-12.929 h 36.27"
         style="fill:#1d4e9e;fill-opacity:1;fill-rule:nonzero;stroke:none"
         id="path22" />
      <path
         d="m 1972.32,813.613 35,-3.972 c -1.92,-7.297 -5.09,-13.618 -9.49,-18.957 -4.4,-5.332 -10.02,-9.485 -16.87,-12.43 -6.85,-2.961 -15.54,-4.438 -26.1,-4.438 -10.18,0 -18.67,0.95 -25.45,2.856 -6.79,1.894 -12.61,4.961 -17.5,9.207 -4.89,4.25 -8.72,9.238 -11.49,14.961 -2.78,5.723 -4.16,13.308 -4.16,22.773 0,9.871 1.69,18.098 5.06,24.668 2.47,4.817 5.85,9.141 10.13,12.969 4.29,3.816 8.69,6.672 13.21,8.535 7.18,2.953 16.38,4.43 27.59,4.43 15.67,0 27.62,-2.805 35.86,-8.414 8.23,-5.606 14,-13.809 17.32,-24.602 l -34.64,-4.605 c -1.08,4.097 -3.07,7.183 -5.93,9.265 -2.86,2.082 -6.71,3.118 -11.53,3.118 -6.08,0 -11.02,-2.18 -14.78,-6.543 -3.78,-4.368 -5.66,-10.969 -5.66,-19.817 0,-7.89 1.87,-13.879 5.61,-17.969 3.73,-4.089 8.5,-6.14 14.28,-6.14 4.83,0 8.89,1.238 12.17,3.711 3.29,2.469 5.75,6.265 7.37,11.394"
         style="fill:#1d4e9e;fill-opacity:1;fill-rule:nonzero;stroke:none"
         id="path24" />
      <path
         d="m 2024.25,872.047 h 34.27 v -15.649 c 5.12,6.383 10.31,10.957 15.55,13.7 5.26,2.746 11.64,4.117 19.18,4.117 10.19,0 18.17,-3.031 23.92,-9.086 5.77,-6.066 8.64,-15.422 8.64,-28.09 v -61.055 h -36.99 v 52.825 c 0,6.035 -1.11,10.293 -3.34,12.8 -2.24,2.5 -5.37,3.75 -9.42,3.75 -4.46,0 -8.07,-1.687 -10.85,-5.066 -2.77,-3.379 -4.16,-9.434 -4.16,-18.176 v -46.133 h -36.8 v 96.063"
         style="fill:#1d4e9e;fill-opacity:1;fill-rule:nonzero;stroke:none"
         id="path26" />
      <path
         d="m 2143.27,823.75 c 0,14.648 4.94,26.719 14.84,36.223 9.88,9.492 23.24,14.242 40.07,14.242 19.23,0 33.75,-5.582 43.58,-16.735 7.91,-8.984 11.85,-20.046 11.85,-33.195 0,-14.773 -4.9,-26.875 -14.69,-36.305 -9.81,-9.445 -23.37,-14.164 -40.66,-14.164 -15.44,0 -27.92,3.918 -37.44,11.758 -11.7,9.707 -17.55,22.434 -17.55,38.176 z m 36.9,0.09 c 0,-8.567 1.74,-14.895 5.2,-18.996 3.47,-4.102 7.83,-6.153 13.07,-6.153 5.31,0 9.67,2.024 13.07,6.067 3.41,4.031 5.11,10.515 5.11,19.441 0,8.321 -1.71,14.512 -5.16,18.582 -3.43,4.074 -7.68,6.106 -12.75,6.106 -5.36,0 -9.8,-2.063 -13.3,-6.192 -3.5,-4.129 -5.24,-10.422 -5.24,-18.855"
         style="fill:#1d4e9e;fill-opacity:1;fill-rule:nonzero;stroke:none"
         id="path28" />
      <path
         d="m 2271.34,872.047 h 34.28 v -15.649 c 5.11,6.383 10.31,10.957 15.55,13.7 5.25,2.746 11.63,4.117 19.18,4.117 10.19,0 18.17,-3.031 23.92,-9.086 5.76,-6.066 8.64,-15.422 8.64,-28.09 v -61.055 h -37 v 52.825 c 0,6.035 -1.11,10.293 -3.34,12.8 -2.24,2.5 -5.37,3.75 -9.41,3.75 -4.46,0 -8.07,-1.687 -10.85,-5.066 -2.78,-3.379 -4.17,-9.434 -4.17,-18.176 v -46.133 h -36.8 v 96.063"
         style="fill:#1d4e9e;fill-opacity:1;fill-rule:nonzero;stroke:none"
         id="path30" />
      <path
         d="m 2501.52,814.883 h -73.8 c 0.67,-5.906 2.26,-10.313 4.79,-13.203 3.56,-4.16 8.2,-6.239 13.92,-6.239 3.64,0 7.07,0.899 10.33,2.704 1.98,1.152 4.12,3.171 6.42,6.066 l 36.26,-3.352 c -5.55,-9.648 -12.23,-16.562 -20.07,-20.754 -7.85,-4.187 -19.08,-6.289 -33.74,-6.289 -12.72,0 -22.73,1.797 -30.03,5.383 -7.3,3.594 -13.34,9.285 -18.14,17.102 -4.78,7.801 -7.19,16.98 -7.19,27.539 0,15.008 4.81,27.156 14.43,36.441 9.62,9.289 22.9,13.934 39.84,13.934 13.75,0 24.6,-2.082 32.57,-6.246 7.96,-4.16 14.02,-10.188 18.18,-18.086 4.15,-7.903 6.23,-18.172 6.23,-30.84 z m -37.44,17.637 c -0.72,7.109 -2.65,12.207 -5.75,15.285 -3.11,3.074 -7.18,4.617 -12.26,4.617 -5.85,0 -10.52,-2.324 -14.01,-6.973 -2.22,-2.89 -3.64,-7.195 -4.25,-12.929 h 36.27"
         style="fill:#1d4e9e;fill-opacity:1;fill-rule:nonzero;stroke:none"
         id="path32" />
      <path
         d="m 2562.85,908.586 v -36.539 h 20.26 V 845.09 h -20.26 v -34.024 c 0,-4.101 0.39,-6.808 1.17,-8.125 1.21,-2.05 3.32,-3.078 6.33,-3.078 2.72,0 6.52,0.789 11.4,2.356 l 2.71,-25.41 c -9.1,-1.993 -17.6,-2.993 -25.5,-2.993 -9.16,0 -15.92,1.172 -20.26,3.528 -4.34,2.344 -7.56,5.918 -9.64,10.703 -2.08,4.785 -3.12,12.539 -3.12,23.262 v 33.781 h -13.56 v 26.957 h 13.56 v 17.637 l 36.91,18.902"
         style="fill:#1d4e9e;fill-opacity:1;fill-rule:nonzero;stroke:none"
         id="path34" />
      <path
         d="m 2753.14,830.254 35.91,-10.852 c -2.42,-10.066 -6.21,-18.484 -11.39,-25.23 -5.19,-6.762 -11.62,-11.848 -19.31,-15.285 -7.69,-3.438 -17.47,-5.157 -29.35,-5.157 -14.41,0 -26.19,2.09 -35.32,6.282 -9.14,4.187 -17.02,11.551 -23.66,22.097 -6.63,10.547 -9.94,24.043 -9.94,40.489 0,21.933 5.83,38.793 17.5,50.578 11.67,11.781 28.17,17.668 49.51,17.668 16.71,0 29.84,-3.379 39.39,-10.125 9.57,-6.758 16.66,-17.129 21.31,-31.117 l -36.19,-8.047 c -1.26,4.031 -2.59,6.992 -3.97,8.859 -2.3,3.137 -5.1,5.547 -8.41,7.238 -3.32,1.684 -7.02,2.536 -11.13,2.536 -9.28,0 -16.4,-3.743 -21.34,-11.204 -3.75,-5.546 -5.61,-14.25 -5.61,-26.113 0,-14.687 2.22,-24.766 6.69,-30.215 4.47,-5.449 10.73,-8.176 18.81,-8.176 7.84,0 13.76,2.2 17.79,6.606 4,4.394 6.9,10.789 8.71,19.168"
         style="fill:#1d4e9e;fill-opacity:1;fill-rule:nonzero;stroke:none"
         id="path36" />
      <path
         d="m 2801.98,823.75 c 0,14.648 4.95,26.719 14.85,36.223 9.88,9.492 23.23,14.242 40.06,14.242 19.24,0 33.77,-5.582 43.59,-16.735 7.9,-8.984 11.86,-20.046 11.86,-33.195 0,-14.773 -4.91,-26.875 -14.7,-36.305 -9.81,-9.445 -23.36,-14.164 -40.67,-14.164 -15.43,0 -27.91,3.918 -37.44,11.758 -11.7,9.707 -17.55,22.434 -17.55,38.176 z m 36.91,0.09 c 0,-8.567 1.74,-14.895 5.2,-18.996 3.47,-4.102 7.82,-6.153 13.07,-6.153 5.3,0 9.67,2.024 13.06,6.067 3.41,4.031 5.12,10.515 5.12,19.441 0,8.321 -1.71,14.512 -5.16,18.582 -3.44,4.074 -7.69,6.106 -12.75,6.106 -5.37,0 -9.8,-2.063 -13.3,-6.192 -3.49,-4.129 -5.24,-10.422 -5.24,-18.855"
         style="fill:#1d4e9e;fill-opacity:1;fill-rule:nonzero;stroke:none"
         id="path38" />
      <path
         d="m 2930.33,872.047 h 34.37 v -14.02 c 4.95,5.852 9.95,10.008 14.99,12.477 5.04,2.476 11.13,3.711 18.25,3.711 7.67,0 13.74,-1.36 18.2,-4.067 4.48,-2.714 8.14,-6.757 10.97,-12.121 5.77,6.27 11.05,10.539 15.81,12.793 4.75,2.266 10.62,3.395 17.61,3.395 10.3,0 18.34,-3.063 24.11,-9.176 5.79,-6.125 8.67,-15.703 8.67,-28.723 v -60.332 h -36.9 v 54.731 c 0,4.336 -0.84,7.558 -2.52,9.676 -2.46,3.308 -5.53,4.968 -9.19,4.968 -4.33,0 -7.81,-1.57 -10.46,-4.707 -2.65,-3.132 -3.97,-8.164 -3.97,-15.093 v -49.575 h -36.9 v 52.914 c 0,4.227 -0.24,7.086 -0.73,8.59 -0.78,2.414 -2.14,4.36 -4.09,5.84 -1.93,1.477 -4.2,2.219 -6.79,2.219 -4.24,0 -7.72,-1.602 -10.44,-4.793 -2.73,-3.203 -4.09,-8.449 -4.09,-15.742 v -49.028 h -36.9 v 96.063"
         style="fill:#1d4e9e;fill-opacity:1;fill-rule:nonzero;stroke:none"
         id="path40" />
      <path
         d="m 3115.47,739.453 v 132.594 h 34.46 v -14.203 c 4.76,5.965 9.14,10.008 13.12,12.117 5.36,2.836 11.3,4.254 17.81,4.254 12.85,0 22.78,-4.918 29.8,-14.742 7.02,-9.832 10.54,-21.985 10.54,-36.446 0,-15.988 -3.82,-28.172 -11.49,-36.589 -7.65,-8.411 -17.33,-12.622 -29.03,-12.622 -5.67,0 -10.84,0.969 -15.51,2.895 -4.67,1.934 -8.85,4.793 -12.53,8.594 v -45.852 z m 36.91,84.297 c 0,-7.598 1.58,-13.242 4.79,-16.914 3.19,-3.684 7.24,-5.52 12.12,-5.52 4.27,0 7.86,1.758 10.76,5.286 2.9,3.535 4.34,9.511 4.34,17.961 0,7.773 -1.51,13.484 -4.53,17.136 -3,3.653 -6.68,5.469 -11.02,5.469 -4.71,0 -8.63,-1.836 -11.76,-5.52 -3.15,-3.668 -4.7,-9.644 -4.7,-17.898"
         style="fill:#1d4e9e;fill-opacity:1;fill-rule:nonzero;stroke:none"
         id="path42" />
      <path
         d="m 3340.05,775.984 h -34.37 v 15.559 c -5.13,-6.387 -10.3,-10.938 -15.51,-13.652 -5.22,-2.715 -11.62,-4.075 -19.22,-4.075 -10.13,0 -18.07,3.032 -23.84,9.094 -5.75,6.055 -8.62,15.391 -8.62,27.988 v 61.149 h 36.98 v -52.828 c 0,-6.028 1.12,-10.305 3.35,-12.84 2.23,-2.531 5.36,-3.801 9.4,-3.801 4.4,0 8.01,1.692 10.82,5.07 2.8,3.375 4.2,9.43 4.2,18.18 v 46.219 h 36.81 v -96.063"
         style="fill:#1d4e9e;fill-opacity:1;fill-rule:nonzero;stroke:none"
         id="path44" />
      <path
         d="m 3406.8,908.586 v -36.539 h 20.26 V 845.09 h -20.26 v -34.024 c 0,-4.101 0.39,-6.808 1.17,-8.125 1.2,-2.05 3.32,-3.078 6.33,-3.078 2.72,0 6.52,0.789 11.4,2.356 l 2.71,-25.41 c -9.11,-1.993 -17.61,-2.993 -25.5,-2.993 -9.17,0 -15.92,1.172 -20.27,3.528 -4.34,2.344 -7.54,5.918 -9.62,10.703 -2.09,4.785 -3.13,12.539 -3.13,23.262 v 33.781 h -13.57 v 26.957 h 13.57 v 17.637 l 36.91,18.902"
         style="fill:#1d4e9e;fill-opacity:1;fill-rule:nonzero;stroke:none"
         id="path46" />
      <path
         d="m 3551.23,814.883 h -73.79 c 0.66,-5.906 2.26,-10.313 4.79,-13.203 3.55,-4.16 8.2,-6.239 13.92,-6.239 3.62,0 7.06,0.899 10.31,2.704 2,1.152 4.14,3.171 6.43,6.066 l 36.27,-3.352 c -5.55,-9.648 -12.23,-16.562 -20.08,-20.754 -7.84,-4.187 -19.08,-6.289 -33.74,-6.289 -12.72,0 -22.72,1.797 -30.03,5.383 -7.29,3.594 -13.34,9.285 -18.13,17.102 -4.8,7.801 -7.2,16.98 -7.2,27.539 0,15.008 4.82,27.156 14.43,36.441 9.63,9.289 22.9,13.934 39.85,13.934 13.75,0 24.6,-2.082 32.57,-6.246 7.94,-4.16 14.01,-10.188 18.17,-18.086 4.16,-7.903 6.23,-18.172 6.23,-30.84 z m -37.44,17.637 c -0.72,7.109 -2.64,12.207 -5.74,15.285 -3.11,3.074 -7.19,4.617 -12.26,4.617 -5.85,0 -10.52,-2.324 -14.01,-6.973 -2.23,-2.89 -3.64,-7.195 -4.25,-12.929 h 36.26"
         style="fill:#1d4e9e;fill-opacity:1;fill-rule:nonzero;stroke:none"
         id="path48" />
      <path
         d="m 3568.52,872.047 h 34.45 v -15.738 c 3.32,6.804 6.75,11.504 10.27,14.062 3.53,2.559 7.89,3.844 13.07,3.844 5.42,0 11.36,-1.692 17.82,-5.067 l -11.41,-26.226 c -4.33,1.805 -7.77,2.715 -10.3,2.715 -4.82,0 -8.56,-1.992 -11.21,-5.969 -3.8,-5.613 -5.7,-16.102 -5.7,-31.477 v -32.207 h -36.99 v 96.063"
         style="fill:#1d4e9e;fill-opacity:1;fill-rule:nonzero;stroke:none"
         id="path50" />
      <path
         d="m 3648.47,802.676 36.54,3.429 c 1.5,-4.335 3.62,-7.445 6.33,-9.308 2.72,-1.875 6.34,-2.805 10.86,-2.805 4.94,0 8.77,1.047 11.48,3.156 2.11,1.563 3.17,3.528 3.17,5.872 0,2.644 -1.39,4.695 -4.17,6.14 -1.99,1.028 -7.26,2.285 -15.81,3.789 -12.8,2.239 -21.67,4.297 -26.66,6.192 -4.96,1.894 -9.16,5.105 -12.55,9.621 -3.41,4.519 -5.12,9.676 -5.12,15.457 0,6.316 1.84,11.765 5.51,16.355 3.68,4.574 8.75,7.992 15.2,10.25 6.46,2.262 15.1,3.391 25.96,3.391 11.45,0 19.91,-0.875 25.37,-2.621 5.45,-1.75 10,-4.465 13.66,-8.149 3.65,-3.672 6.67,-8.648 9.08,-14.922 l -34.91,-3.433 c -0.91,3.074 -2.41,5.34 -4.52,6.785 -2.89,1.926 -6.39,2.891 -10.49,2.891 -4.17,0 -7.19,-0.735 -9.09,-2.207 -1.89,-1.485 -2.85,-3.274 -2.85,-5.371 0,-2.352 1.2,-4.129 3.61,-5.333 2.41,-1.203 7.67,-2.285 15.74,-3.25 12.24,-1.386 21.35,-3.312 27.32,-5.785 5.97,-2.468 10.55,-5.996 13.71,-10.574 3.16,-4.582 4.75,-9.609 4.75,-15.09 0,-5.535 -1.68,-10.933 -5.02,-16.172 -3.35,-5.242 -8.64,-9.414 -15.83,-12.515 -7.21,-3.098 -17.03,-4.653 -29.45,-4.653 -17.54,0 -30.04,2.5 -37.49,7.512 -7.44,5 -12.22,12.117 -14.33,21.348"
         style="fill:#1d4e9e;fill-opacity:1;fill-rule:nonzero;stroke:none"
         id="path52" />
    </g>
  </g>
</svg>
